<svg width="256" height="70" viewBox="0 0 256 70" fill="none" xmlns="http://www.w3.org/2000/svg">
<path d="M83.8092 35V19.742H90.4137C91.7797 19.742 92.9567 19.9672 93.9448 20.4177C94.933 20.8536 95.6959 21.4858 96.2335 22.3141C96.7712 23.1423 97.04 24.1305 97.04 25.2785C97.04 26.4119 96.7712 27.3928 96.2335 28.2211C95.6959 29.0348 94.933 29.6597 93.9448 30.0956C92.9567 30.5316 91.7797 30.7496 90.4137 30.7496H85.7709L87.3403 29.202V35H83.8092ZM93.5089 35L89.6944 29.4635H93.4653L97.3234 35H93.5089ZM87.3403 29.5943L85.7709 27.9377H90.2175C91.3074 27.9377 92.1211 27.7052 92.6588 27.2402C93.1965 26.7607 93.4653 26.1068 93.4653 25.2785C93.4653 24.4356 93.1965 23.7817 92.6588 23.3167C92.1211 22.8517 91.3074 22.6192 90.2175 22.6192H85.7709L87.3403 20.9408V29.5943ZM103.086 25.8888H110.431V28.6352H103.086V25.8888ZM103.347 32.1664H111.652V35H99.8377V19.742H111.368V22.5756H103.347V32.1664ZM114.461 35V19.742H121.393C123.049 19.742 124.51 20.0617 125.774 20.7011C127.038 21.3259 128.027 22.2051 128.739 23.3385C129.451 24.472 129.807 25.8161 129.807 27.371C129.807 28.9113 129.451 30.2555 128.739 31.4035C128.027 32.5369 127.038 33.4233 125.774 34.0627C124.51 34.6876 123.049 35 121.393 35H114.461ZM117.993 32.101H121.219C122.236 32.101 123.115 31.9121 123.856 31.5343C124.612 31.1419 125.193 30.5897 125.6 29.8777C126.021 29.1656 126.232 28.3301 126.232 27.371C126.232 26.3974 126.021 25.5618 125.6 24.8643C125.193 24.1523 124.612 23.6074 123.856 23.2295C123.115 22.8372 122.236 22.641 121.219 22.641H117.993V32.101ZM83.8092 62V46.742H86.73L93.2255 57.5098H91.6779L98.0645 46.742H100.964L101.007 62H97.694L97.6722 51.8207H98.2825L93.1819 60.387H91.5907L86.3812 51.8207H87.1223V62H83.8092ZM104.627 62V46.742H108.158V62H104.627ZM119.081 62.2616C117.904 62.2616 116.807 62.0727 115.79 61.6948C114.787 61.3025 113.915 60.7503 113.174 60.0383C112.433 59.3262 111.852 58.4907 111.431 57.5316C111.024 56.5725 110.82 55.519 110.82 54.371C110.82 53.223 111.024 52.1695 111.431 51.2104C111.852 50.2513 112.433 49.4158 113.174 48.7037C113.93 47.9917 114.809 47.4468 115.812 47.0689C116.814 46.6766 117.912 46.4804 119.103 46.4804C120.426 46.4804 121.617 46.7129 122.678 47.1779C123.753 47.6284 124.654 48.2969 125.381 49.1833L123.114 51.2758C122.591 50.68 122.009 50.2368 121.37 49.9462C120.731 49.641 120.033 49.4884 119.278 49.4884C118.566 49.4884 117.912 49.6047 117.316 49.8372C116.72 50.0697 116.204 50.4039 115.768 50.8399C115.332 51.2758 114.991 51.7917 114.744 52.3875C114.511 52.9832 114.395 53.6444 114.395 54.371C114.395 55.0976 114.511 55.7587 114.744 56.3545C114.991 56.9503 115.332 57.4662 115.768 57.9021C116.204 58.3381 116.72 58.6723 117.316 58.9048C117.912 59.1373 118.566 59.2536 119.278 59.2536C120.033 59.2536 120.731 59.1082 121.37 58.8176C122.009 58.5125 122.591 58.0547 123.114 57.4444L125.381 59.5369C124.654 60.4233 123.753 61.0991 122.678 61.5641C121.617 62.0291 120.418 62.2616 119.081 62.2616ZM127.765 62V46.742H134.37C135.736 46.742 136.913 46.9672 137.901 47.4177C138.889 47.8536 139.652 48.4858 140.19 49.3141C140.727 50.1423 140.996 51.1305 140.996 52.2785C140.996 53.4119 140.727 54.3928 140.19 55.2211C139.652 56.0348 138.889 56.6597 137.901 57.0956C136.913 57.5316 135.736 57.7496 134.37 57.7496H129.727L131.296 56.202V62H127.765ZM137.465 62L133.651 56.4635H137.421L141.28 62H137.465ZM131.296 56.5943L129.727 54.9377H134.174C135.264 54.9377 136.077 54.7052 136.615 54.2402C137.153 53.7607 137.421 53.1068 137.421 52.2785C137.421 51.4356 137.153 50.7817 136.615 50.3167C136.077 49.8517 135.264 49.6192 134.174 49.6192H129.727L131.296 47.9408V56.5943ZM151.205 62.2616C149.999 62.2616 148.88 62.0654 147.848 61.673C146.831 61.2807 145.945 60.7285 145.189 60.0165C144.448 59.3044 143.867 58.4689 143.445 57.5098C143.038 56.5507 142.835 55.5044 142.835 54.371C142.835 53.2375 143.038 52.1913 143.445 51.2322C143.867 50.2731 144.455 49.4376 145.211 48.7255C145.966 48.0135 146.853 47.4613 147.87 47.0689C148.887 46.6766 149.992 46.4804 151.183 46.4804C152.389 46.4804 153.494 46.6766 154.496 47.0689C155.514 47.4613 156.393 48.0135 157.134 48.7255C157.889 49.4376 158.478 50.2731 158.899 51.2322C159.321 52.1767 159.531 53.223 159.531 54.371C159.531 55.5044 159.321 56.558 158.899 57.5316C158.478 58.4907 157.889 59.3262 157.134 60.0383C156.393 60.7358 155.514 61.2807 154.496 61.673C153.494 62.0654 152.397 62.2616 151.205 62.2616ZM151.183 59.2536C151.866 59.2536 152.491 59.1373 153.058 58.9048C153.639 58.6723 154.148 58.3381 154.583 57.9021C155.019 57.4662 155.354 56.9503 155.586 56.3545C155.833 55.7587 155.957 55.0976 155.957 54.371C155.957 53.6444 155.833 52.9832 155.586 52.3875C155.354 51.7917 155.019 51.2758 154.583 50.8399C154.162 50.4039 153.661 50.0697 153.079 49.8372C152.498 49.6047 151.866 49.4884 151.183 49.4884C150.5 49.4884 149.868 49.6047 149.287 49.8372C148.72 50.0697 148.219 50.4039 147.783 50.8399C147.347 51.2758 147.005 51.7917 146.758 52.3875C146.526 52.9832 146.41 53.6444 146.41 54.371C146.41 55.083 146.526 55.7442 146.758 56.3545C147.005 56.9503 147.34 57.4662 147.761 57.9021C148.197 58.3381 148.706 58.6723 149.287 58.9048C149.868 59.1373 150.5 59.2536 151.183 59.2536ZM169.487 62.2616C168.31 62.2616 167.213 62.0727 166.196 61.6948C165.193 61.3025 164.321 60.7503 163.58 60.0383C162.839 59.3262 162.258 58.4907 161.837 57.5316C161.43 56.5725 161.226 55.519 161.226 54.371C161.226 53.223 161.43 52.1695 161.837 51.2104C162.258 50.2513 162.839 49.4158 163.58 48.7037C164.336 47.9917 165.215 47.4468 166.218 47.0689C167.22 46.6766 168.318 46.4804 169.509 46.4804C170.831 46.4804 172.023 46.7129 173.084 47.1779C174.159 47.6284 175.06 48.2969 175.787 49.1833L173.52 51.2758C172.997 50.68 172.415 50.2368 171.776 49.9462C171.137 49.641 170.439 49.4884 169.683 49.4884C168.971 49.4884 168.318 49.6047 167.722 49.8372C167.126 50.0697 166.61 50.4039 166.174 50.8399C165.738 51.2758 165.397 51.7917 165.15 52.3875C164.917 52.9832 164.801 53.6444 164.801 54.371C164.801 55.0976 164.917 55.7587 165.15 56.3545C165.397 56.9503 165.738 57.4662 166.174 57.9021C166.61 58.3381 167.126 58.6723 167.722 58.9048C168.318 59.1373 168.971 59.2536 169.683 59.2536C170.439 59.2536 171.137 59.1082 171.776 58.8176C172.415 58.5125 172.997 58.0547 173.52 57.4444L175.787 59.5369C175.06 60.4233 174.159 61.0991 173.084 61.5641C172.023 62.0291 170.824 62.2616 169.487 62.2616ZM181.419 52.8888H188.765V55.6352H181.419V52.8888ZM181.681 59.1664H189.985V62H178.171V46.742H189.702V49.5756H181.681V59.1664ZM192.795 62V46.742H195.716L204.718 57.7278H203.301V46.742H206.789V62H203.89L194.866 51.0142H196.282V62H192.795ZM213.559 62V49.6192H208.677V46.742H221.973V49.6192H217.09V62H213.559ZM223.873 62V46.742H230.477C231.843 46.742 233.02 46.9672 234.009 47.4177C234.997 47.8536 235.76 48.4858 236.297 49.3141C236.835 50.1423 237.104 51.1305 237.104 52.2785C237.104 53.4119 236.835 54.3928 236.297 55.2211C235.76 56.0348 234.997 56.6597 234.009 57.0956C233.02 57.5316 231.843 57.7496 230.477 57.7496H225.835L227.404 56.202V62H223.873ZM233.573 62L229.758 56.4635H233.529L237.387 62H233.573ZM227.404 56.5943L225.835 54.9377H230.281C231.371 54.9377 232.185 54.7052 232.723 54.2402C233.26 53.7607 233.529 53.1068 233.529 52.2785C233.529 51.4356 233.26 50.7817 232.723 50.3167C232.185 49.8517 231.371 49.6192 230.281 49.6192H225.835L227.404 47.9408V56.5943ZM247.313 62.2616C246.106 62.2616 244.987 62.0654 243.956 61.673C242.939 61.2807 242.052 60.7285 241.296 60.0165C240.555 59.3044 239.974 58.4689 239.553 57.5098C239.146 56.5507 238.942 55.5044 238.942 54.371C238.942 53.2375 239.146 52.1913 239.553 51.2322C239.974 50.2731 240.563 49.4376 241.318 48.7255C242.074 48.0135 242.96 47.4613 243.978 47.0689C244.995 46.6766 246.099 46.4804 247.291 46.4804C248.497 46.4804 249.601 46.6766 250.604 47.0689C251.621 47.4613 252.5 48.0135 253.241 48.7255C253.997 49.4376 254.585 50.2731 255.007 51.2322C255.428 52.1767 255.639 53.223 255.639 54.371C255.639 55.5044 255.428 56.558 255.007 57.5316C254.585 58.4907 253.997 59.3262 253.241 60.0383C252.5 60.7358 251.621 61.2807 250.604 61.673C249.601 62.0654 248.504 62.2616 247.313 62.2616ZM247.291 59.2536C247.974 59.2536 248.599 59.1373 249.165 58.9048C249.747 58.6723 250.255 58.3381 250.691 57.9021C251.127 57.4662 251.461 56.9503 251.694 56.3545C251.941 55.7587 252.064 55.0976 252.064 54.371C252.064 53.6444 251.941 52.9832 251.694 52.3875C251.461 51.7917 251.127 51.2758 250.691 50.8399C250.27 50.4039 249.768 50.0697 249.187 49.8372C248.606 49.6047 247.974 49.4884 247.291 49.4884C246.608 49.4884 245.976 49.6047 245.394 49.8372C244.828 50.0697 244.326 50.4039 243.89 50.8399C243.454 51.2758 243.113 51.7917 242.866 52.3875C242.633 52.9832 242.517 53.6444 242.517 54.371C242.517 55.083 242.633 55.7442 242.866 56.3545C243.113 56.9503 243.447 57.4662 243.869 57.9021C244.305 58.3381 244.813 58.6723 245.394 58.9048C245.976 59.1373 246.608 59.2536 247.291 59.2536Z" fill="#191718"/>
<path d="M66.7856 61.3789V27.6316H68.3392V25.3376H66.7127V24.8721C66.7127 22.9091 65.3947 21.2321 63.5158 20.5198C63.3307 20.4469 63.2073 20.2842 63.2073 20.0991V19.9028C62.7922 19.9028 62.4557 19.6 62.4557 19.2186V17.0705C62.4557 16.6554 62.1304 16.3133 61.6986 16.2404L61.5191 11.2879L61.3396 16.2404C60.9077 16.3189 60.5824 16.661 60.5824 17.0705V19.2186C60.5824 19.5944 60.2459 19.9028 59.8309 19.9028V20.0991C59.8309 20.2842 59.7075 20.4469 59.5224 20.5198C57.6435 21.2321 56.3255 22.9091 56.3255 24.8721V25.3376H54.7719V27.6316H56.3255V61.3789H61.4742V44.2893H52.5957L39.993 61.3789H48.8716L48.249 6.24575L44.4295 2L40.5876 6.39158L40.1613 45.4391L27.7662 61.3789H33.2066V8.94913L19.7458 18.1137V46.9702H23.8962V33.6048H10.1045V61.3789H2V67.9634H73V61.3789H66.7856Z" fill="#191718" stroke="#F5F5F5" stroke-width="2.24346" stroke-linejoin="round"/>
</svg>
